<?xml version="1.0" encoding="UTF-8" standalone="no"?>
<!-- Created with Inkscape (http://www.inkscape.org/) -->

<svg
   xmlns:dc="http://purl.org/dc/elements/1.1/"
   xmlns:cc="http://creativecommons.org/ns#"
   xmlns:rdf="http://www.w3.org/1999/02/22-rdf-syntax-ns#"
   xmlns:svg="http://www.w3.org/2000/svg"
   xmlns="http://www.w3.org/2000/svg"
   xmlns:sodipodi="http://sodipodi.sourceforge.net/DTD/sodipodi-0.dtd"
   xmlns:inkscape="http://www.inkscape.org/namespaces/inkscape"
   width="210mm"
   height="297mm"
   viewBox="0 0 744.09448819 1052.3622047"
   id="svg2"
   version="1.1"
   inkscape:version="0.91 r13725"
   sodipodi:docname="icons.svg">
  <defs
     id="defs4" />
  <sodipodi:namedview
     id="base"
     pagecolor="#ffffff"
     bordercolor="#666666"
     borderopacity="1.0"
     inkscape:pageopacity="0.0"
     inkscape:pageshadow="2"
     inkscape:zoom="1.979899"
     inkscape:cx="410.84118"
     inkscape:cy="380.27403"
     inkscape:document-units="px"
     inkscape:current-layer="layer1"
     showgrid="false"
     inkscape:window-width="1680"
     inkscape:window-height="998"
     inkscape:window-x="-8"
     inkscape:window-y="-8"
     inkscape:window-maximized="1" />
  <metadata
     id="metadata7">
    <rdf:RDF>
      <cc:Work
         rdf:about="">
        <dc:format>image/svg+xml</dc:format>
        <dc:type
           rdf:resource="http://purl.org/dc/dcmitype/StillImage" />
      </cc:Work>
    </rdf:RDF>
  </metadata>
  <g
     inkscape:label="Calque 1"
     inkscape:groupmode="layer"
     id="layer1">
    <path
       id="path4138"
       d="m 310.28935,539.05649 c 0.04,-0.32 0.07,-0.64 0.07,-0.98 0,-0.34 -0.03,-0.66 -0.07,-0.98 l 2.11,-1.65 c 0.19,-0.15 0.24,-0.42 0.12,-0.64 l -2,-3.46 c -0.12,-0.22 -0.39,-0.3 -0.61,-0.22 l -2.49,1 c -0.52,-0.4 -1.08,-0.73 -1.69,-0.98 l -0.38,-2.65 c -0.03,-0.24 -0.24,-0.42 -0.49,-0.42 l -4,0 c -0.25,0 -0.46,0.18 -0.49,0.42 l -0.38,2.65 c -0.61,0.25 -1.17,0.59 -1.69,0.98 l -2.49,-1 c -0.23,-0.09 -0.49,0 -0.61,0.22 l -2,3.46 c -0.13,0.22 -0.07,0.49 0.12,0.64 l 2.11,1.65 c -0.04,0.32 -0.07,0.65 -0.07,0.98 0,0.33 0.03,0.66 0.07,0.98 l -2.11,1.65 c -0.19,0.15 -0.24,0.42 -0.12,0.64 l 2,3.46 c 0.12,0.22 0.39,0.3 0.61,0.22 l 2.49,-1 c 0.52,0.4 1.08,0.73 1.69,0.98 l 0.38,2.65 c 0.03,0.24 0.24,0.42 0.49,0.42 l 4,0 c 0.25,0 0.46,-0.18 0.49,-0.42 l 0.38,-2.65 c 0.61,-0.25 1.17,-0.59 1.69,-0.98 l 2.49,1 c 0.23,0.09 0.49,0 0.61,-0.22 l 2,-3.46 c 0.12,-0.22 0.07,-0.49 -0.12,-0.64 l -2.11,-1.65 z m -7.43,2.52 c -1.93,0 -3.5,-1.57 -3.5,-3.5 0,-1.93 1.57,-3.5 3.5,-3.5 1.93,0 3.5,1.57 3.5,3.5 0,1.93 -1.57,3.5 -3.5,3.5 z"
       inkscape:connector-curvature="0" />
    <path
       id="path4138-4"
       d="m 298.98749,570.61556 c 0.04,-0.32 0.07,-0.64 0.07,-0.98 0,-0.34 -0.03,-0.66 -0.07,-0.98 l 2.11,-1.65 c 0.19,-0.15 0.24,-0.42 0.12,-0.64 l -2,-3.46 c -0.12,-0.22 -0.39,-0.3 -0.61,-0.22 l -2.49,1 c -0.52,-0.4 -1.08,-0.73 -1.69,-0.98 l -0.38,-2.65 c -0.03,-0.24 -0.24,-0.42 -0.49,-0.42 l -4,0 c -0.25,0 -0.46,0.18 -0.49,0.42 l -0.38,2.65 c -0.61,0.25 -1.17,0.59 -1.69,0.98 l -2.49,-1 c -0.23,-0.09 -0.49,0 -0.61,0.22 l -2,3.46 c -0.13,0.22 -0.07,0.49 0.12,0.64 l 2.11,1.65 c -0.04,0.32 -0.07,0.65 -0.07,0.98 0,0.33 0.03,0.66 0.07,0.98 l -2.11,1.65 c -0.19,0.15 -0.24,0.42 -0.12,0.64 l 2,3.46 c 0.12,0.22 0.39,0.3 0.61,0.22 l 2.49,-1 c 0.52,0.4 1.08,0.73 1.69,0.98 l 0.38,2.65 c 0.03,0.24 0.24,0.42 0.49,0.42 l 4,0 c 0.25,0 0.46,-0.18 0.49,-0.42 l 0.38,-2.65 c 0.61,-0.25 1.17,-0.59 1.69,-0.98 l 2.49,1 c 0.23,0.09 0.49,0 0.61,-0.22 l 2,-3.46 c 0.12,-0.22 0.07,-0.49 -0.12,-0.64 z"
       inkscape:connector-curvature="0"
       sodipodi:nodetypes="csccccccccssccccccccsccccccccsscccccccc"
       style="stroke:#000000;stroke-opacity:1;fill:none;stroke-width:0.5;stroke-miterlimit:4;stroke-dasharray:none"
       inkscape:export-xdpi="79.024391"
       inkscape:export-ydpi="79.024391" />
    <path
       id="path4164-9"
       d="m 296.34581,570.31989 -4.10596,0 0,4.10596 -1.36866,0 0,-4.10596 -4.10596,0 0,-1.36866 4.10596,0 0,-4.10596 1.36866,0 0,4.10596 4.10596,0 0,1.36866 z"
       inkscape:connector-curvature="0"
       inkscape:export-xdpi="79.024391"
       inkscape:export-ydpi="79.024391" />
    <path
       id="path4138-4-1"
       d="m 322.98749,570.61556 c 0.04,-0.32 0.07,-0.64 0.07,-0.98 0,-0.34 -0.03,-0.66 -0.07,-0.98 l 2.11,-1.65 c 0.19,-0.15 0.24,-0.42 0.12,-0.64 l -2,-3.46 c -0.12,-0.22 -0.39,-0.3 -0.61,-0.22 l -2.49,1 c -0.52,-0.4 -1.08,-0.73 -1.69,-0.98 l -0.38,-2.65 c -0.03,-0.24 -0.24,-0.42 -0.49,-0.42 l -4,0 c -0.25,0 -0.46,0.18 -0.49,0.42 l -0.38,2.65 c -0.61,0.25 -1.17,0.59 -1.69,0.98 l -2.49,-1 c -0.23,-0.09 -0.49,0 -0.61,0.22 l -2,3.46 c -0.13,0.22 -0.07,0.49 0.12,0.64 l 2.11,1.65 c -0.04,0.32 -0.07,0.65 -0.07,0.98 0,0.33 0.03,0.66 0.07,0.98 l -2.11,1.65 c -0.19,0.15 -0.24,0.42 -0.12,0.64 l 2,3.46 c 0.12,0.22 0.39,0.3 0.61,0.22 l 2.49,-1 c 0.52,0.4 1.08,0.73 1.69,0.98 l 0.38,2.65 c 0.03,0.24 0.24,0.42 0.49,0.42 l 4,0 c 0.25,0 0.46,-0.18 0.49,-0.42 l 0.38,-2.65 c 0.61,-0.25 1.17,-0.59 1.69,-0.98 l 2.49,1 c 0.23,0.09 0.49,0 0.61,-0.22 l 2,-3.46 c 0.12,-0.22 0.07,-0.49 -0.12,-0.64 z"
       inkscape:connector-curvature="0"
       sodipodi:nodetypes="csccccccccssccccccccsccccccccsscccccccc"
       style="fill:none;stroke:#000000;stroke-width:0.5;stroke-miterlimit:4;stroke-dasharray:none;stroke-opacity:1"
       inkscape:export-xdpi="79.024391"
       inkscape:export-ydpi="79.024391" />
    <path
       id="path4164-9-9"
       d="m 319.46193,570.31989 -7.81282,0 0,-1.36866 7.81282,0 z"
       inkscape:connector-curvature="0"
       sodipodi:nodetypes="ccccc"
       inkscape:export-xdpi="79.024391"
       inkscape:export-ydpi="79.024391" />
    <path
       id="path4249"
       d="m 335.60503,571.94024 0,1.64581 1.64581,0 4.85404,-4.85404 -1.64581,-1.6458 -4.85404,4.85403 z m 7.77261,-4.48098 c 0.17116,-0.17117 0.17116,-0.44767 0,-0.61883 l -1.02699,-1.02699 c -0.17116,-0.17115 -0.44766,-0.17115 -0.61882,0 l -0.80316,0.80316 1.64581,1.64581 0.80316,-0.80315 z"
       inkscape:connector-curvature="0"
       inkscape:export-xdpi="79.024391"
       inkscape:export-ydpi="79.024391" />
    <path
       id="path4138-4-1-9"
       d="m 346.98749,570.61556 c 0.04,-0.32 0.07,-0.64 0.07,-0.98 0,-0.34 -0.03,-0.66 -0.07,-0.98 l 2.11,-1.65 c 0.19,-0.15 0.24,-0.42 0.12,-0.64 l -2,-3.46 c -0.12,-0.22 -0.39,-0.3 -0.61,-0.22 l -2.49,1 c -0.52,-0.4 -1.08,-0.73 -1.69,-0.98 l -0.38,-2.65 c -0.03,-0.24 -0.24,-0.42 -0.49,-0.42 l -4,0 c -0.25,0 -0.46,0.18 -0.49,0.42 l -0.38,2.65 c -0.61,0.25 -1.17,0.59 -1.69,0.98 l -2.49,-1 c -0.23,-0.09 -0.49,0 -0.61,0.22 l -2,3.46 c -0.13,0.22 -0.07,0.49 0.12,0.64 l 2.11,1.65 c -0.04,0.32 -0.07,0.65 -0.07,0.98 0,0.33 0.03,0.66 0.07,0.98 l -2.11,1.65 c -0.19,0.15 -0.24,0.42 -0.12,0.64 l 2,3.46 c 0.12,0.22 0.39,0.3 0.61,0.22 l 2.49,-1 c 0.52,0.4 1.08,0.73 1.69,0.98 l 0.38,2.65 c 0.03,0.24 0.24,0.42 0.49,0.42 l 4,0 c 0.25,0 0.46,-0.18 0.49,-0.42 l 0.38,-2.65 c 0.61,-0.25 1.17,-0.59 1.69,-0.98 l 2.49,1 c 0.23,0.09 0.49,0 0.61,-0.22 l 2,-3.46 c 0.12,-0.22 0.07,-0.49 -0.12,-0.64 z"
       inkscape:connector-curvature="0"
       sodipodi:nodetypes="csccccccccssccccccccsccccccccsscccccccc"
       style="fill:none;stroke:#000000;stroke-width:0.5;stroke-miterlimit:4;stroke-dasharray:none;stroke-opacity:1"
       inkscape:export-xdpi="79.024391"
       inkscape:export-ydpi="79.024391" />
    <path
       id="path4138-4-1-9-5-5"
       d="m 375.1561,561.17676 -0.2354,-1.25949 c -0.0285,-0.22842 -0.22843,-0.39974 -0.46637,-0.39974 l -3.80705,0 c -0.23795,0 -0.43781,0.17132 -0.46636,0.39974 l -0.36168,2.52218 c -0.58058,0.23794 -1.11356,0.56154 -1.60848,0.93273 l -2.36989,-0.95177 c -0.2189,-0.0856 -0.46636,0 -0.58058,0.20939 l -1.90353,3.29311 c -0.12373,0.20939 -0.0666,0.46636 0.11421,0.60913 l 2.00822,1.57041 c -0.0381,0.30456 -0.0666,0.61865 -0.0666,0.93273 0,0.31408 0.0285,0.62816 0.0666,0.93272 l -2.00822,1.57041 c -0.18083,0.14277 -0.22842,0.39974 -0.11421,0.60914 l 1.90353,3.2931 c 0.11422,0.20939 0.37119,0.28553 0.58058,0.20939 l 1.35974,-0.50982"
       inkscape:connector-curvature="0"
       sodipodi:nodetypes="ccssccccccccscccccc"
       style="fill:none;stroke:#000000;stroke-width:0.4758822;stroke-miterlimit:4;stroke-dasharray:none;stroke-opacity:1"
       inkscape:export-xdpi="79.024391"
       inkscape:export-ydpi="79.024391" />
    <path
       id="path4138-4-1-9-5"
       d="m 382.38189,571.7168 c 0.0352,-0.28198 0.0617,-0.56397 0.0617,-0.86358 0,-0.29961 -0.0264,-0.58159 -0.0617,-0.86358 l 1.85934,-1.45398 c 0.16743,-0.13218 0.21149,-0.37011 0.10574,-0.56397 l -1.76241,-3.04897 c -0.10574,-0.19386 -0.34367,-0.26436 -0.53753,-0.19386 l -2.1942,0.8812 c -0.45822,-0.35248 -0.9517,-0.64328 -1.48923,-0.86358 l -0.33486,-2.33519 c -0.0264,-0.21149 -0.21149,-0.3701 -0.43179,-0.3701 l -3.52481,0 c -0.22031,0 -0.40536,0.15861 -0.43179,0.3701 l -0.33486,2.33519 c -0.53754,0.2203 -1.03101,0.51991 -1.48924,0.86358 l -2.19419,-0.8812 c -0.20268,-0.0793 -0.43179,0 -0.53754,0.19386 l -1.7624,3.04897 c -0.11456,0.19386 -0.0617,0.43179 0.10574,0.56397 l 1.85934,1.45398 c -0.0352,0.28199 -0.0617,0.57278 -0.0617,0.86358 0,0.2908 0.0264,0.5816 0.0617,0.86358 l -1.85934,1.45399 c -0.16743,0.13218 -0.21149,0.3701 -0.10574,0.56397 l 1.7624,3.04896 c 0.10575,0.19387 0.34367,0.26436 0.53754,0.19387 l 2.19419,-0.88121 c 0.45823,0.35249 0.9517,0.64328 1.48924,0.86358 l 0.33486,2.33519 c 0.0264,0.21149 0.21148,0.37011 0.43179,0.37011 l 3.52481,0 c 0.2203,0 0.40535,-0.15862 0.43179,-0.37011 l 0.33486,-2.33519 c 0.53753,-0.2203 1.03101,-0.51991 1.48923,-0.86358 l 2.1942,0.88121 c 0.20268,0.0793 0.43179,0 0.53753,-0.19387 l 1.76241,-3.04896 c 0.10575,-0.19387 0.0617,-0.43179 -0.10574,-0.56397 z"
       inkscape:connector-curvature="0"
       sodipodi:nodetypes="csccccccccssccccccccsccccccccsscccccccc"
       style="fill:none;stroke:#000000;stroke-width:0.44060186;stroke-miterlimit:4;stroke-dasharray:none;stroke-opacity:1"
       inkscape:export-xdpi="79.024391"
       inkscape:export-ydpi="79.024391" />
    <path
       id="path4138-4-1-9-6"
       d="m 416.98749,570.61556 c 0.04,-0.32 0.07,-0.64 0.07,-0.98 0,-0.34 -0.03,-0.66 -0.07,-0.98 l 2.11,-1.65 c 0.19,-0.15 0.24,-0.42 0.12,-0.64 l -2,-3.46 c -0.12,-0.22 -0.39,-0.3 -0.61,-0.22 l -2.49,1 c -0.52,-0.4 -1.08,-0.73 -1.69,-0.98 l -0.38,-2.65 c -0.03,-0.24 -0.24,-0.42 -0.49,-0.42 l -4,0 c -0.25,0 -0.46,0.18 -0.49,0.42 l -0.38,2.65 c -0.61,0.25 -1.17,0.59 -1.69,0.98 l -2.49,-1 c -0.23,-0.09 -0.49,0 -0.61,0.22 l -2,3.46 c -0.13,0.22 -0.07,0.49 0.12,0.64 l 2.11,1.65 c -0.04,0.32 -0.07,0.65 -0.07,0.98 0,0.33 0.03,0.66 0.07,0.98 l -2.11,1.65 c -0.19,0.15 -0.24,0.42 -0.12,0.64 l 2,3.46 c 0.12,0.22 0.39,0.3 0.61,0.22 l 2.49,-1 c 0.52,0.4 1.08,0.73 1.69,0.98 l 0.38,2.65 c 0.03,0.24 0.24,0.42 0.49,0.42 l 4,0 c 0.25,0 0.46,-0.18 0.49,-0.42 l 0.38,-2.65 c 0.61,-0.25 1.17,-0.59 1.69,-0.98 l 2.49,1 c 0.23,0.09 0.49,0 0.61,-0.22 l 2,-3.46 c 0.12,-0.22 0.07,-0.49 -0.12,-0.64 z"
       inkscape:connector-curvature="0"
       sodipodi:nodetypes="csccccccccssccccccccsccccccccsscccccccc"
       style="fill:none;stroke:#000000;stroke-width:0.5;stroke-miterlimit:4;stroke-dasharray:none;stroke-opacity:1"
       inkscape:export-xdpi="79.024391"
       inkscape:export-ydpi="79.024391" />
    <path
       id="path4399"
       d="m 407.57074,565.20686 0,8.8574 6.95939,-4.4287 z"
       inkscape:connector-curvature="0"
       inkscape:export-xdpi="79.024391"
       inkscape:export-ydpi="79.024391" />
    <path
       id="path4138-4-1-9-6-3"
       d="m 440.98749,570.61556 c 0.04,-0.32 0.07,-0.64 0.07,-0.98 0,-0.34 -0.03,-0.66 -0.07,-0.98 l 2.11,-1.65 c 0.19,-0.15 0.24,-0.42 0.12,-0.64 l -2,-3.46 c -0.12,-0.22 -0.39,-0.3 -0.61,-0.22 l -2.49,1 c -0.52,-0.4 -1.08,-0.73 -1.69,-0.98 l -0.38,-2.65 c -0.03,-0.24 -0.24,-0.42 -0.49,-0.42 l -4,0 c -0.25,0 -0.46,0.18 -0.49,0.42 l -0.38,2.65 c -0.61,0.25 -1.17,0.59 -1.69,0.98 l -2.49,-1 c -0.23,-0.09 -0.49,0 -0.61,0.22 l -2,3.46 c -0.13,0.22 -0.07,0.49 0.12,0.64 l 2.11,1.65 c -0.04,0.32 -0.07,0.65 -0.07,0.98 0,0.33 0.03,0.66 0.07,0.98 l -2.11,1.65 c -0.19,0.15 -0.24,0.42 -0.12,0.64 l 2,3.46 c 0.12,0.22 0.39,0.3 0.61,0.22 l 2.49,-1 c 0.52,0.4 1.08,0.73 1.69,0.98 l 0.38,2.65 c 0.03,0.24 0.24,0.42 0.49,0.42 l 4,0 c 0.25,0 0.46,-0.18 0.49,-0.42 l 0.38,-2.65 c 0.61,-0.25 1.17,-0.59 1.69,-0.98 l 2.49,1 c 0.23,0.09 0.49,0 0.61,-0.22 l 2,-3.46 c 0.12,-0.22 0.07,-0.49 -0.12,-0.64 z"
       inkscape:connector-curvature="0"
       sodipodi:nodetypes="csccccccccssccccccccsccccccccsscccccccc"
       style="fill:none;stroke:#000000;stroke-width:0.5;stroke-miterlimit:4;stroke-dasharray:none;stroke-opacity:1"
       inkscape:export-xdpi="79.024391"
       inkscape:export-ydpi="79.024391" />
    <path
       id="path4428"
       d="m 432.03882,571.96105 -2.15455,-2.15455 -0.71818,0.71818 2.87273,2.87273 6.15584,-6.15584 -0.71818,-0.71819 -5.43766,5.43767 z"
       inkscape:connector-curvature="0"
       inkscape:export-xdpi="79.024391"
       inkscape:export-ydpi="79.024391" />
    <path
       id="path4138-4-9"
       d="m 299.16798,602.59463 c 0.04,-0.32 0.07,-0.64 0.07,-0.98 0,-0.34 -0.03,-0.66 -0.07,-0.98 l 2.11,-1.65 c 0.19,-0.15 0.24,-0.42 0.12,-0.64 l -2,-3.46 c -0.12,-0.22 -0.39,-0.3 -0.61,-0.22 l -2.49,1 c -0.52,-0.4 -1.08,-0.73 -1.69,-0.98 l -0.38,-2.65 c -0.03,-0.24 -0.24,-0.42 -0.49,-0.42 l -4,0 c -0.25,0 -0.46,0.18 -0.49,0.42 l -0.38,2.65 c -0.61,0.25 -1.17,0.59 -1.69,0.98 l -2.49,-1 c -0.23,-0.09 -0.49,0 -0.61,0.22 l -2,3.46 c -0.13,0.22 -0.07,0.49 0.12,0.64 l 2.11,1.65 c -0.04,0.32 -0.07,0.65 -0.07,0.98 0,0.33 0.03,0.66 0.07,0.98 l -2.11,1.65 c -0.19,0.15 -0.24,0.42 -0.12,0.64 l 2,3.46 c 0.12,0.22 0.39,0.3 0.61,0.22 l 2.49,-1 c 0.52,0.4 1.08,0.73 1.69,0.98 l 0.38,2.65 c 0.03,0.24 0.24,0.42 0.49,0.42 l 2.17857,0"
       inkscape:connector-curvature="0"
       sodipodi:nodetypes="csccccccccssccccccccsccccccccsc"
       style="fill:none;stroke:#000000;stroke-width:0.5;stroke-miterlimit:4;stroke-dasharray:none;stroke-opacity:1"
       inkscape:export-xdpi="79.024391"
       inkscape:export-ydpi="79.024391" />
    <path
       id="path4138-4-1-2"
       d="m 322.98749,602.61556 c 0.04,-0.32 0.07,-0.64 0.07,-0.98 0,-0.34 -0.03,-0.66 -0.07,-0.98 l 2.11,-1.65 c 0.19,-0.15 0.24,-0.42 0.12,-0.64 l -2,-3.46 c -0.12,-0.22 -0.39,-0.3 -0.61,-0.22 l -2.49,1 c -0.52,-0.4 -1.08,-0.73 -1.69,-0.98 l -0.38,-2.65 c -0.03,-0.24 -0.24,-0.42 -0.49,-0.42 l -4,0 c -0.25,0 -0.46,0.18 -0.49,0.42 l -0.38,2.65 c -0.61,0.25 -1.17,0.59 -1.69,0.98 l -2.49,-1 c -0.23,-0.09 -0.49,0 -0.61,0.22 l -2,3.46 c -0.13,0.22 -0.07,0.49 0.12,0.64 l 2.11,1.65 c -0.04,0.32 -0.07,0.65 -0.07,0.98 0,0.33 0.03,0.66 0.07,0.98 l -2.11,1.65 c -0.19,0.15 -0.24,0.42 -0.12,0.64 l 2,3.46 c 0.12,0.22 0.39,0.3 0.61,0.22 l 2.49,-1 c 0.52,0.4 1.08,0.73 1.69,0.98 l 0.38,2.65 c 0.03,0.24 0.24,0.42 0.49,0.42 l 4,0 c 0.25,0 0.46,-0.18 0.49,-0.42 l 0.38,-2.65 c 0.61,-0.25 1.17,-0.59 1.69,-0.98 l 2.49,1 c 0.23,0.09 0.49,0 0.61,-0.22 l 0.80044,-1.28186"
       inkscape:connector-curvature="0"
       sodipodi:nodetypes="csccccccccssccccccccsccccccccsscccccc"
       style="fill:none;stroke:#000000;stroke-width:0.5;stroke-miterlimit:4;stroke-dasharray:none;stroke-opacity:1"
       inkscape:export-xdpi="79.024391"
       inkscape:export-ydpi="79.024391" />
    <path
       id="path4249-2"
       d="m 335.6959,609.00354 0,2.88202 2.88203,0 8.50004,-8.50004 -2.88203,-2.88202 -8.50004,8.50004 z m 13.61084,-7.84677 c 0.29971,-0.29975 0.29971,-0.78393 0,-1.08366 l -1.79839,-1.79839 c -0.29972,-0.2997 -0.78391,-0.2997 -1.08364,0 l -1.40643,1.40643 2.88203,2.88204 1.40643,-1.40642 z"
       inkscape:connector-curvature="0"
       inkscape:export-xdpi="79.024391"
       inkscape:export-ydpi="79.024391" />
    <path
       id="path4138-4-1-9-64"
       d="m 348.17577,596.47152 -0.95828,-1.56596 c -0.12,-0.22 -0.39,-0.3 -0.61,-0.22 l -2.49,1 c -0.52,-0.4 -1.08,-0.73 -1.69,-0.98 l -0.38,-2.65 c -0.03,-0.24 -0.24,-0.42 -0.49,-0.42 l -4,0 c -0.25,0 -0.46,0.18 -0.49,0.42 l -0.38,2.65 c -0.61,0.25 -1.17,0.59 -1.69,0.98 l -2.49,-1 c -0.23,-0.09 -0.49,0 -0.61,0.22 l -2,3.46 c -0.13,0.22 -0.07,0.49 0.12,0.64 l 2.11,1.65 c -0.04,0.32 -0.07,0.65 -0.07,0.98 0,0.33 0.03,0.66 0.07,0.98 l -2.11,1.65 c -0.19,0.15 -0.24,0.42 -0.12,0.64 l 2,3.46 c 0.12,0.22 0.39,0.3 0.61,0.22 l 2.49,-1"
       inkscape:connector-curvature="0"
       sodipodi:nodetypes="ccccccssccccccccscccccc"
       style="fill:none;stroke:#000000;stroke-width:0.5;stroke-miterlimit:4;stroke-dasharray:none;stroke-opacity:1"
       inkscape:export-xdpi="79.024391"
       inkscape:export-ydpi="79.024391" />
    <path
       id="path4138-4-1-9-5-5-4"
       d="m 375.1561,593.17676 -0.2354,-1.25949 c -0.0285,-0.22842 -0.22843,-0.39974 -0.46637,-0.39974 l -3.80705,0 c -0.23795,0 -0.43781,0.17132 -0.46636,0.39974 l -0.36168,2.52218 c -0.58058,0.23794 -1.11356,0.56154 -1.60848,0.93273 l -2.36989,-0.95177 c -0.2189,-0.0856 -0.46636,0 -0.58058,0.20939 l -1.90353,3.29311 c -0.12373,0.20939 -0.0666,0.46636 0.11421,0.60913 l 2.00822,1.57041 c -0.0381,0.30456 -0.0666,0.61865 -0.0666,0.93273 0,0.31408 0.0285,0.62816 0.0666,0.93272 l -2.00822,1.57041 c -0.18083,0.14277 -0.22842,0.39974 -0.11421,0.60914 l 1.90353,3.2931 c 0.11422,0.20939 0.37119,0.28553 0.58058,0.20939 l 1.35974,-0.50982"
       inkscape:connector-curvature="0"
       sodipodi:nodetypes="ccssccccccccscccccc"
       style="fill:none;stroke:#000000;stroke-width:0.4758822;stroke-miterlimit:4;stroke-dasharray:none;stroke-opacity:1"
       inkscape:export-xdpi="79.024391"
       inkscape:export-ydpi="79.024391" />
    <path
       id="path4138-4-1-9-5-2"
       d="m 382.38189,603.7168 c 0.0352,-0.28198 0.0617,-0.56397 0.0617,-0.86358 0,-0.29961 -0.0264,-0.58159 -0.0617,-0.86358 l 1.85934,-1.45398 c 0.16743,-0.13218 0.21149,-0.37011 0.10574,-0.56397 l -1.76241,-3.04897 c -0.10574,-0.19386 -0.34367,-0.26436 -0.53753,-0.19386 l -2.1942,0.8812 c -0.45822,-0.35248 -0.9517,-0.64328 -1.48923,-0.86358 l -0.33486,-2.33519 c -0.0264,-0.21149 -0.21149,-0.3701 -0.43179,-0.3701 l -3.52481,0 c -0.22031,0 -0.40536,0.15861 -0.43179,0.3701 l -0.33486,2.33519 c -0.53754,0.2203 -1.03101,0.51991 -1.48924,0.86358 l -2.19419,-0.8812 c -0.20268,-0.0793 -0.43179,0 -0.53754,0.19386 l -1.7624,3.04897 c -0.11456,0.19386 -0.0617,0.43179 0.10574,0.56397 l 1.85934,1.45398 c -0.0352,0.28199 -0.0617,0.57278 -0.0617,0.86358 0,0.2908 0.0264,0.5816 0.0617,0.86358 l -1.85934,1.45399 c -0.16743,0.13218 -0.21149,0.3701 -0.10574,0.56397 l 1.7624,3.04896 c 0.10575,0.19387 0.34367,0.26436 0.53754,0.19387 l 2.19419,-0.88121 c 0.45823,0.35249 0.9517,0.64328 1.48924,0.86358 l 0.33486,2.33519 c 0.0264,0.21149 0.21148,0.37011 0.43179,0.37011 l 3.52481,0 c 0.2203,0 0.40535,-0.15862 0.43179,-0.37011 l 0.33486,-2.33519 c 0.53753,-0.2203 1.03101,-0.51991 1.48923,-0.86358 l 2.1942,0.88121 c 0.20268,0.0793 0.43179,0 0.53753,-0.19387 l 1.76241,-3.04896 c 0.10575,-0.19387 0.0617,-0.43179 -0.10574,-0.56397 z"
       inkscape:connector-curvature="0"
       sodipodi:nodetypes="csccccccccssccccccccsccccccccsscccccccc"
       style="fill:none;stroke:#000000;stroke-width:0.44060186;stroke-miterlimit:4;stroke-dasharray:none;stroke-opacity:1"
       inkscape:export-xdpi="79.024391"
       inkscape:export-ydpi="79.024391" />
    <path
       id="path4138-4-1-9-6-2"
       d="m 416.98749,602.61556 c 0.04,-0.32 0.07,-0.64 0.07,-0.98 0,-0.34 -0.03,-0.66 -0.07,-0.98 l 2.11,-1.65 c 0.19,-0.15 0.24,-0.42 0.12,-0.64 l -2,-3.46 c -0.12,-0.22 -0.39,-0.3 -0.61,-0.22 l -2.49,1 c -0.52,-0.4 -1.08,-0.73 -1.69,-0.98 l -0.38,-2.65 c -0.03,-0.24 -0.24,-0.42 -0.49,-0.42 l -4,0 c -0.25,0 -0.46,0.18 -0.49,0.42 l -0.38,2.65 c -0.61,0.25 -1.17,0.59 -1.69,0.98 l -2.49,-1 c -0.23,-0.09 -0.49,0 -0.61,0.22 l -2,3.46 c -0.13,0.22 -0.07,0.49 0.12,0.64 l 2.11,1.65 c -0.04,0.32 -0.07,0.65 -0.07,0.98 0,0.33 0.03,0.66 0.07,0.98 l -2.11,1.65 c -0.19,0.15 -0.24,0.42 -0.12,0.64 l 2,3.46 c 0.12,0.22 0.39,0.3 0.61,0.22 l 2.49,-1 c 0.52,0.4 1.08,0.73 1.69,0.98 l 0.38,2.65 c 0.03,0.24 0.24,0.42 0.49,0.42"
       inkscape:connector-curvature="0"
       sodipodi:nodetypes="csccccccccssccccccccsccccccccc"
       style="fill:none;stroke:#000000;stroke-width:0.5;stroke-miterlimit:4;stroke-dasharray:none;stroke-opacity:1"
       inkscape:export-xdpi="79.024391"
       inkscape:export-ydpi="79.024391" />
    <path
       id="path4399-1"
       d="m 409.20478,598.74245 0,13.14311 10.32674,-6.57155 z"
       inkscape:connector-curvature="0"
       inkscape:export-xdpi="79.024391"
       inkscape:export-ydpi="79.024391" />
    <path
       id="path4138-4-1-9-6-3-8"
       d="m 442.68085,597.48168 -1.46336,-2.57612 c -0.12,-0.22 -0.39,-0.3 -0.61,-0.22 l -2.49,1 c -0.52,-0.4 -1.08,-0.73 -1.69,-0.98 l -0.38,-2.65 c -0.03,-0.24 -0.24,-0.42 -0.49,-0.42 l -4,0 c -0.25,0 -0.46,0.18 -0.49,0.42 l -0.38,2.65 c -0.61,0.25 -1.17,0.59 -1.69,0.98 l -2.49,-1 c -0.23,-0.09 -0.49,0 -0.61,0.22 l -2,3.46 c -0.13,0.22 -0.07,0.49 0.12,0.64 l 2.11,1.65 c -0.04,0.32 -0.07,0.65 -0.07,0.98 0,0.33 0.03,0.66 0.07,0.98 l -2.11,1.65 c -0.19,0.15 -0.24,0.42 -0.12,0.64 l 2,3.46 c 0.12,0.22 0.39,0.3 0.61,0.22"
       inkscape:connector-curvature="0"
       sodipodi:nodetypes="ccccccssccccccccsccccc"
       style="fill:none;stroke:#000000;stroke-width:0.5;stroke-miterlimit:4;stroke-dasharray:none;stroke-opacity:1"
       inkscape:export-xdpi="79.024391"
       inkscape:export-ydpi="79.024391" />
    <path
       id="path4487"
       d="m 301.71201,605.86463 -6,0 0,6 -2,0 0,-6 -6,0 0,-2 6,0 0,-6 2,0 0,6 6,0 0,2 z"
       inkscape:connector-curvature="0" />
    <path
       id="path4487-0"
       d="m 325.71201,605.86463 -14,0 0,-2 14,0 z"
       inkscape:connector-curvature="0"
       sodipodi:nodetypes="ccccc" />
    <path
       id="path4524"
       d="m 433.00043,609.40198 -3.65956,-3.65956 -1.24618,1.2374 4.90574,4.90574 10.53109,-10.5311 -1.2374,-1.2374 z"
       inkscape:connector-curvature="0" />
  </g>
</svg>
