<?xml version="1.0" encoding="UTF-8" standalone="no"?>
<!-- Generator: Adobe Illustrator 16.0.0, SVG Export Plug-In . SVG Version: 6.00 Build 0)  -->

<svg
   xmlns:dc="http://purl.org/dc/elements/1.1/"
   xmlns:cc="http://creativecommons.org/ns#"
   xmlns:rdf="http://www.w3.org/1999/02/22-rdf-syntax-ns#"
   xmlns:svg="http://www.w3.org/2000/svg"
   xmlns="http://www.w3.org/2000/svg"
   xmlns:sodipodi="http://sodipodi.sourceforge.net/DTD/sodipodi-0.dtd"
   xmlns:inkscape="http://www.inkscape.org/namespaces/inkscape"
   version="1.1"
   id="Layer_1"
   x="0px"
   y="0px"
   width="115.333px"
   height="114px"
   viewBox="0 0 115.333 114"
   enable-background="new 0 0 115.333 114"
   xml:space="preserve"
   inkscape:version="0.91 r13725"
   sodipodi:docname="logo.svg"><metadata
     id="metadata4280"><rdf:RDF><cc:Work
         rdf:about=""><dc:format>image/svg+xml</dc:format><dc:type
           rdf:resource="http://purl.org/dc/dcmitype/StillImage" /><dc:title></dc:title></cc:Work></rdf:RDF></metadata><defs
     id="defs4278" /><sodipodi:namedview
     pagecolor="#ffffff"
     bordercolor="#666666"
     borderopacity="1"
     objecttolerance="10"
     gridtolerance="10"
     guidetolerance="10"
     inkscape:pageopacity="0"
     inkscape:pageshadow="2"
     inkscape:window-width="830"
     inkscape:window-height="774"
     id="namedview4276"
     showgrid="false"
     inkscape:zoom="2.0701754"
     inkscape:cx="60.074639"
     inkscape:cy="7.0854701"
     inkscape:window-x="0"
     inkscape:window-y="0"
     inkscape:window-maximized="0"
     inkscape:current-layer="Layer_1" /><g
     id="Layer_2" /><g
     transform="translate(-343.04234,-574.61197)"
     id="g4266"><path
       inkscape:connector-curvature="0"
       id="path4140-4"
       d="m 400.52539,574.46289 c -31.295,0 -56.66601,25.37002 -56.66601,56.66602 0,18.7326 9.09544,35.3357 23.10546,45.65234 l 20.83985,-17.48633 c -10.7227,-4.84992 -18.1875,-15.63276 -18.1875,-28.16601 0,-17.06966 13.8391,-30.90625 30.9082,-30.90625 2.98383,0 5.86592,0.43166 8.5957,1.2207 l 21.68946,-18.19922 c -8.76225,-5.55366 -19.14412,-8.78125 -30.28516,-8.78125 z m 38.16211,14.7793 -20.06641,16.83789 c 7.75954,5.61467 12.8125,14.73895 12.8125,25.04883 0,17.0691 -13.83909,30.90625 -30.9082,30.90625 -0.31191,0 -0.61999,-0.0143 -0.92969,-0.0234 l -23.90625,20.05664 c 7.5006,3.66409 15.92625,5.72656 24.83594,5.72656 31.295,0 56.66602,-25.37101 56.66602,-56.66601 0,-16.5952 -7.13563,-31.52321 -18.50391,-41.88672 z"
       style="fill:#ffffff" /><path
       sodipodi:nodetypes="sssss"
       style="fill:#ffffff"
       inkscape:connector-curvature="0"
       d="m 400.52564,612.84866 c -10.09557,0 -18.28042,8.18387 -18.28042,18.27977 0,10.09557 8.18485,18.28009 18.28042,18.28009 10.09557,0 18.2801,-8.18452 18.2801,-18.28009 0,-10.0959 -8.18485,-18.27977 -18.2801,-18.27977 z"
       id="path4140-4-3-2" /></g></svg>